<svg width="20" height="28" viewBox="0 0 20 28" fill="none" xmlns="http://www.w3.org/2000/svg">
<path d="M0 4C0 1.79086 1.79086 0 4 0H16C18.2091 0 20 1.79086 20 4V24C20 26.2091 18.2091 28 16 28H4C1.79086 28 0 26.2091 0 24V4Z" fill="#163D44"/>
<path d="M9.29 18.37L8.82 18.25L10.7 11.11L11.18 11.24L9.29 18.37ZM8.47 14.4C8.19 14.4 7.95667 14.3467 7.77 14.24C7.59 14.1267 7.45667 13.9567 7.37 13.73C7.28333 13.4967 7.24 13.2 7.24 12.84C7.24 12.48 7.28333 12.1867 7.37 11.96C7.46333 11.7333 7.6 11.57 7.78 11.47C7.96667 11.3633 8.19667 11.31 8.47 11.31C8.75667 11.31 8.99 11.3633 9.17 11.47C9.35 11.57 9.48333 11.7333 9.57 11.96C9.65667 12.1867 9.7 12.48 9.7 12.84C9.7 13.2 9.65667 13.4967 9.57 13.73C9.48333 13.9567 9.35 14.1267 9.17 14.24C8.99 14.3467 8.75667 14.4 8.47 14.4ZM8.47 13.67C8.56333 13.67 8.63667 13.6467 8.69 13.6C8.74333 13.5467 8.78 13.46 8.8 13.34C8.82667 13.2133 8.84 13.0467 8.84 12.84C8.84 12.6333 8.82667 12.4733 8.8 12.36C8.78 12.24 8.74333 12.1567 8.69 12.11C8.63667 12.0567 8.56333 12.03 8.47 12.03C8.37667 12.03 8.30333 12.0567 8.25 12.11C8.19667 12.1567 8.16 12.24 8.14 12.36C8.12 12.4733 8.11 12.6333 8.11 12.84C8.11 13.0467 8.12 13.2133 8.14 13.34C8.16 13.46 8.19667 13.5467 8.25 13.6C8.30333 13.6467 8.37667 13.67 8.47 13.67ZM11.55 18.11C11.2633 18.11 11.0267 18.0567 10.84 17.95C10.66 17.8367 10.5267 17.6667 10.44 17.44C10.3533 17.2067 10.31 16.91 10.31 16.55C10.31 16.19 10.3533 15.8967 10.44 15.67C10.5333 15.4433 10.67 15.2767 10.85 15.17C11.0367 15.0633 11.27 15.01 11.55 15.01C11.83 15.01 12.06 15.0633 12.24 15.17C12.42 15.2767 12.5533 15.4433 12.64 15.67C12.7333 15.8967 12.78 16.19 12.78 16.55C12.78 16.91 12.7333 17.2067 12.64 17.44C12.5533 17.6667 12.42 17.8367 12.24 17.95C12.06 18.0567 11.83 18.11 11.55 18.11ZM11.55 17.38C11.6367 17.38 11.7067 17.3567 11.76 17.31C11.82 17.2567 11.86 17.17 11.88 17.05C11.9 16.9233 11.91 16.7567 11.91 16.55C11.91 16.3367 11.9 16.1733 11.88 16.06C11.86 15.94 11.8233 15.86 11.77 15.82C11.7167 15.7733 11.6433 15.75 11.55 15.75C11.45 15.75 11.3733 15.7733 11.32 15.82C11.2667 15.86 11.23 15.94 11.21 16.06C11.19 16.1733 11.18 16.3367 11.18 16.55C11.18 16.7567 11.19 16.9233 11.21 17.05C11.2367 17.17 11.2767 17.2567 11.33 17.31C11.3833 17.3567 11.4567 17.38 11.55 17.38Z" fill="#D8DADA"/>
</svg>
