<svg width="24" height="24" viewBox="0 0 24 24" fill="none" xmlns="http://www.w3.org/2000/svg">
<path d="M11.9999 17.9999C13.5912 17.9999 15.1173 17.3678 16.2425 16.2425C17.3678 15.1173 17.9999 13.5912 17.9999 11.9999C17.9999 10.4086 17.3678 8.88248 16.2425 7.75726C15.1173 6.63204 13.5912 5.9999 11.9999 5.9999C10.4086 5.9999 8.88248 6.63204 7.75726 7.75726C6.63204 8.88248 5.9999 10.4086 5.9999 11.9999C5.9999 13.5912 6.63204 15.1173 7.75726 16.2425C8.88248 17.3678 10.4086 17.9999 11.9999 17.9999ZM11.9999 2.3999C9.45382 2.3999 7.01203 3.41133 5.21168 5.21168C3.41133 7.01203 2.3999 9.45382 2.3999 11.9999C2.3999 14.546 3.41133 16.9878 5.21168 18.7881C7.01203 20.5885 9.45382 21.5999 11.9999 21.5999C14.546 21.5999 16.9878 20.5885 18.7881 18.7881C20.5885 16.9878 21.5999 14.546 21.5999 11.9999C21.5999 9.45382 20.5885 7.01203 18.7881 5.21168C16.9878 3.41133 14.546 2.3999 11.9999 2.3999ZM3.5999 11.9999C3.5999 10.8968 3.81717 9.8045 4.23931 8.78536C4.66145 7.76623 5.28019 6.84022 6.06021 6.06021C6.84022 5.28019 7.76623 4.66145 8.78536 4.23931C9.8045 3.81717 10.8968 3.5999 11.9999 3.5999C13.103 3.5999 14.1953 3.81717 15.2144 4.23931C16.2336 4.66145 17.1596 5.28019 17.9396 6.06021C18.7196 6.84022 19.3384 7.76623 19.7605 8.78536C20.1826 9.8045 20.3999 10.8968 20.3999 11.9999C20.3999 14.2277 19.5149 16.3643 17.9396 17.9396C16.3643 19.5149 14.2277 20.3999 11.9999 20.3999C9.77208 20.3999 7.63551 19.5149 6.06021 17.9396C4.4849 16.3643 3.5999 14.2277 3.5999 11.9999Z" fill="#DDAF67"/>
</svg>
