<svg width="24" height="24" viewBox="0 0 24 24" fill="none" xmlns="http://www.w3.org/2000/svg">
<path d="M12 2.4375C10.1087 2.4375 8.25991 2.99833 6.68736 4.04907C5.11482 5.09981 3.88917 6.59327 3.16541 8.34059C2.44164 10.0879 2.25227 12.0106 2.62125 13.8656C2.99022 15.7205 3.90096 17.4244 5.2383 18.7617C6.57563 20.099 8.27951 21.0098 10.1345 21.3788C11.9894 21.7477 13.9121 21.5584 15.6594 20.8346C17.4067 20.1108 18.9002 18.8852 19.9509 17.3126C21.0017 15.7401 21.5625 13.8913 21.5625 12C21.5595 9.46478 20.5511 7.03425 18.7584 5.24158C16.9658 3.44891 14.5352 2.44048 12 2.4375ZM12 20.4375C10.3312 20.4375 8.69992 19.9426 7.31238 19.0155C5.92484 18.0884 4.84339 16.7706 4.20477 15.2289C3.56616 13.6871 3.39907 11.9906 3.72463 10.3539C4.05019 8.71721 4.85379 7.21379 6.03379 6.03379C7.2138 4.85378 8.71722 4.05019 10.3539 3.72462C11.9906 3.39906 13.6871 3.56615 15.2289 4.20477C16.7706 4.84338 18.0884 5.92484 19.0155 7.31238C19.9427 8.69992 20.4375 10.3312 20.4375 12C20.435 14.237 19.5453 16.3817 17.9635 17.9635C16.3817 19.5453 14.237 20.435 12 20.4375ZM12 6.9375C10.9987 6.9375 10.02 7.23441 9.18743 7.79068C8.35491 8.34696 7.70603 9.13761 7.32286 10.0627C6.9397 10.9877 6.83944 12.0056 7.03478 12.9876C7.23012 13.9697 7.71227 14.8717 8.42028 15.5797C9.12828 16.2877 10.0303 16.7699 11.0124 16.9652C11.9944 17.1606 13.0123 17.0603 13.9373 16.6771C14.8624 16.294 15.653 15.6451 16.2093 14.8126C16.7656 13.9801 17.0625 13.0013 17.0625 12C17.061 10.6578 16.5272 9.371 15.5781 8.42192C14.629 7.47284 13.3422 6.93899 12 6.9375ZM12 15.9375C11.2212 15.9375 10.46 15.7066 9.81245 15.2739C9.16493 14.8413 8.66025 14.2263 8.36223 13.5068C8.06421 12.7873 7.98623 11.9956 8.13816 11.2318C8.29009 10.468 8.6651 9.76644 9.21577 9.21577C9.76644 8.6651 10.468 8.29009 11.2318 8.13816C11.9956 7.98623 12.7873 8.0642 13.5068 8.36222C14.2263 8.66024 14.8413 9.16492 15.2739 9.81244C15.7066 10.46 15.9375 11.2212 15.9375 12C15.9375 13.0443 15.5227 14.0458 14.7842 14.7842C14.0458 15.5227 13.0443 15.9375 12 15.9375Z" fill="#7C7671"/>
</svg>
